HIERARCHY
ROOT pelvis
{
    OFFSET 0.0 95.64988708496094 0.0
    CHANNELS 6 Xposition Yposition Zposition Zrotation Yrotation Xrotation

    JOINT right_hip
    {
        OFFSET -6.595860481262207 -8.665519714355469 -0.628783106803894
        CHANNELS 3 Zrotation Yrotation Xrotation

        JOINT right_knee
        {
            OFFSET -4.881795883178711 -37.70364761352539 2.5827386379241943
            CHANNELS 3 Zrotation Yrotation Xrotation

            JOINT right_ankle
            {
                OFFSET 0.08588504791259766 -40.97898864746094 -11.777206420898438
                CHANNELS 3 Zrotation Yrotation Xrotation

                JOINT right_foot
                {
                    OFFSET -3.5826101303100586 -5.398246765136719 12.84481143951416
                    CHANNELS 3 Zrotation Yrotation Xrotation

                    End Site
                    {
                        OFFSET 0 0 0
                    }
                }
            }
        }
    }

    JOINT left_hip
    {
        OFFSET 6.204835891723633 -8.128570556640625 0.14874064922332764
        CHANNELS 3 Zrotation Yrotation Xrotation

        JOINT left_knee
        {
            OFFSET 1.1642322540283203 -39.53668212890625 -0.9895660281181335
            CHANNELS 3 Zrotation Yrotation Xrotation

            JOINT left_ankle
            {
                OFFSET -4.327999114990234 -41.99686050415039 -8.6507568359375
                CHANNELS 3 Zrotation Yrotation Xrotation

                JOINT left_foot
                {
                    OFFSET 1.1007122993469238 -4.456940650939941 13.713763236999512
                    CHANNELS 3 Zrotation Yrotation Xrotation

                    End Site
                    {
                        OFFSET 0 0 0
                    }
                }
            }
        }
    }

    JOINT spine1
    {
        OFFSET 0.23033809661865234 12.890144348144531 -3.385608196258545
        CHANNELS 3 Zrotation Yrotation Xrotation

        JOINT spine2
        {
            OFFSET -0.08110223710536957 14.185432434082031 0.8570325374603271
            CHANNELS 3 Zrotation Yrotation Xrotation

            JOINT spine3
            {
                OFFSET 0.029897883534431458 4.502716064453125 3.394036054611206
                CHANNELS 3 Zrotation Yrotation Xrotation

                JOINT right_collar
                {
                    OFFSET -7.221617221832275 12.050750732421875 -2.8773763179779053
                    CHANNELS 3 Zrotation Yrotation Xrotation

                    JOINT right_shoulder
                    {
                        OFFSET -12.106768608093262 -1.9866485595703125 0.09309959411621094
                        CHANNELS 3 Zrotation Yrotation Xrotation

                        JOINT right_elbow
                        {
                            OFFSET -3.4496097564697266 -25.921112060546875 -1.8638691902160645
                            CHANNELS 3 Zrotation Yrotation Xrotation

                            JOINT right_wrist
                            {
                                OFFSET -2.502317428588867 -25.19800567626953 9.920454025268555
                                CHANNELS 3 Zrotation Yrotation Xrotation

                                End Site
                                {
                                    OFFSET 0 0 0
                                }
                            }
                        }
                    }
                }

                JOINT left_collar
                {
                    OFFSET 7.319496154785156 11.361831665039062 -2.4574670791625977
                    CHANNELS 3 Zrotation Yrotation Xrotation

                    JOINT left_shoulder
                    {
                        OFFSET 12.880908966064453 -2.1121368408203125 0.015035510063171387
                        CHANNELS 3 Zrotation Yrotation Xrotation

                        JOINT left_elbow
                        {
                            OFFSET 3.104248046875 -25.336837768554688 -2.0244741439819336
                            CHANNELS 3 Zrotation Yrotation Xrotation

                            JOINT left_wrist
                            {
                                OFFSET 1.9859619140625 -24.5037841796875 10.173372268676758
                                CHANNELS 3 Zrotation Yrotation Xrotation

                                End Site
                                {
                                    OFFSET 0 0 0
                                }
                            }
                        }
                    }
                }

                JOINT neck
                {
                    OFFSET 0.3599180281162262 21.72100830078125 -2.6518373489379883
                    CHANNELS 3 Zrotation Yrotation Xrotation

                    JOINT head
                    {
                        OFFSET -0.011142075061798096 7.4417877197265625 6.859175682067871
                        CHANNELS 3 Zrotation Yrotation Xrotation

                        End Site
                        {
                            OFFSET 0 0 0
                        }
                    }
                }
            }
        }
    }

}

MOTION
Frames: 11
Frame Time: 0.050000
-32.012863 95.200485 294.246918 0.000000 0.000000 -0.000000 -11.058011 -5.891429 -16.724998 0.339742 2.942362 -13.998949 61.127774 -14.984189 11.034307 0.000000 0.000000 -0.000000 -0.663827 -0.393544 14.200007 -1.946591 -3.869009 17.233990 32.272274 3.260866 2.033809 0.000000 0.000000 -0.000000 4.737211 -5.413145 -10.383952 2.018586 -3.982293 4.388737 0.000000 0.000000 -0.000000 0.942731 10.487520 -0.953424 -10.102341 0.308933 -4.882291 3.972807 2.720770 -1.116575 0.000000 0.000000 -0.000000 5.630284 -6.548801 -6.786871 11.071931 -2.112797 -7.786654 -9.387072 -2.993638 0.798073 0.000000 0.000000 -0.000000 4.781807 -2.614096 -9.693849 0.000000 0.000000 -0.000000
-33.550732 96.092949 300.308594 0.000000 0.000000 -0.000000 -11.568764 -7.296296 -12.759739 -0.562279 1.917822 -13.564919 57.616717 -12.303089 10.784123 0.000000 0.000000 -0.000000 -2.475517 -2.703835 10.136092 -0.737043 -1.467858 29.205038 33.738845 9.792455 10.117018 0.000000 0.000000 -0.000000 5.520837 -6.275669 -10.194049 3.364907 -5.106032 2.425716 0.000000 0.000000 -0.000000 1.473575 12.100607 -0.748544 -11.010807 0.852414 -5.784069 3.852976 2.863809 -0.399480 0.000000 0.000000 -0.000000 5.299297 -3.742214 -5.954802 7.904417 -1.640491 -7.222481 -10.796438 -4.196458 2.134838 0.000000 0.000000 -0.000000 8.120283 -4.374308 -9.072354 0.000000 0.000000 -0.000000
-35.110058 96.498749 305.964478 0.000000 0.000000 -0.000000 -11.355784 -8.320363 -8.412088 -1.447821 0.589657 -13.699199 54.089325 -9.914688 6.243735 0.000000 0.000000 -0.000000 -5.544907 -5.829810 2.118707 -0.489614 2.282463 44.909158 32.419336 13.886734 17.199900 0.000000 0.000000 -0.000000 6.194680 -6.973468 -9.725077 3.798950 -5.633313 1.201639 0.000000 0.000000 -0.000000 2.276101 14.234395 -0.393388 -11.642169 2.028458 -6.812151 1.883262 2.279518 -0.260109 0.000000 0.000000 -0.000000 5.513631 -1.360476 -5.761631 5.670670 -1.197093 -5.552078 -14.037435 -6.253733 2.597510 0.000000 0.000000 -0.000000 11.324687 -6.171872 -9.612585 0.000000 0.000000 -0.000000
-36.493999 96.558998 311.087463 0.000000 0.000000 -0.000000 -11.609384 -9.816287 -4.051425 -1.167621 0.265615 -13.919250 53.213766 -6.699983 2.937496 0.000000 0.000000 -0.000000 -7.153022 -6.702077 -6.702708 -0.913156 2.418969 57.969831 29.748535 10.866866 18.889412 0.000000 0.000000 -0.000000 5.968698 -6.591766 -8.665173 5.745832 -6.526815 0.774535 0.000000 0.000000 -0.000000 3.278066 15.765372 0.280643 -11.864402 3.327571 -9.317071 0.767103 2.135667 0.096191 0.000000 0.000000 -0.000000 5.975154 0.076988 -5.984084 3.453682 -1.959190 -3.376518 -14.115583 -6.797252 2.449771 0.000000 0.000000 -0.000000 13.311583 -7.022754 -8.050134 0.000000 0.000000 -0.000000
-37.669418 96.689507 315.816711 0.000000 0.000000 -0.000000 -11.546800 -10.980766 -0.142358 -1.238638 -0.527130 -14.879770 53.495604 -4.374972 0.668972 0.000000 0.000000 -0.000000 -7.398840 -6.178508 -15.406321 -0.413109 1.943309 65.125603 22.751726 2.936452 19.417772 0.000000 0.000000 -0.000000 5.587597 -6.176202 -8.681751 7.000662 -7.065765 0.739187 0.000000 0.000000 -0.000000 3.190198 16.759822 -0.036342 -11.037464 5.518201 -9.962552 -0.378906 2.146419 0.065162 0.000000 0.000000 -0.000000 6.256649 1.738716 -5.997629 1.518060 -2.279662 -1.482375 -14.441789 -7.233913 1.321100 0.000000 0.000000 -0.000000 15.726761 -8.142937 -7.126348 0.000000 0.000000 -0.000000
-38.661613 96.820564 320.243408 0.000000 0.000000 -0.000000 -11.364394 -11.979122 3.432520 -0.583406 -0.527292 -15.747920 42.619013 -4.702023 -1.609344 0.000000 0.000000 -0.000000 -6.862512 -5.247320 -22.756571 0.768578 1.776339 66.006616 11.695767 -6.608969 17.578495 0.000000 0.000000 -0.000000 5.626346 -6.105957 -7.688232 8.554155 -7.845271 0.458877 0.000000 0.000000 -0.000000 3.997282 17.343059 0.646963 -10.756501 6.335665 -12.075147 -0.219652 2.705337 -0.546434 0.000000 0.000000 -0.000000 6.422304 3.196096 -5.934841 0.172965 -2.276748 -0.223316 -13.091562 -6.679632 1.916501 0.000000 0.000000 -0.000000 17.329275 -8.681928 -5.569680 0.000000 0.000000 -0.000000
-39.453014 97.028435 324.467529 0.000000 0.000000 -0.000000 -11.163200 -12.782740 6.372443 0.109723 -0.290120 -16.253362 37.235632 -3.816165 -3.069980 0.000000 0.000000 -0.000000 -3.962856 -3.116961 -28.034767 1.933794 -2.411190 59.466514 0.912007 -11.297440 15.250413 0.000000 0.000000 -0.000000 5.026450 -5.445263 -7.543166 8.602374 -7.521389 1.363505 0.000000 0.000000 -0.000000 4.332011 17.094279 1.045945 -10.963515 6.191897 -13.938518 0.139036 2.902592 -1.378661 0.000000 0.000000 -0.000000 5.695351 3.823889 -5.114475 0.035962 -1.238467 0.180186 -12.823134 -6.596129 2.203884 0.000000 0.000000 -0.000000 18.071743 -8.952106 -5.034745 0.000000 0.000000 -0.000000
-40.100266 96.969376 328.584930 0.000000 0.000000 -0.000000 -10.575108 -13.230763 9.452476 0.149672 -0.804731 -16.693241 37.915232 -1.827247 -2.436207 0.000000 0.000000 -0.000000 -1.066564 -1.352881 -31.473984 1.974677 -5.440880 47.341701 -13.084175 -11.287684 13.209533 0.000000 0.000000 -0.000000 4.065802 -4.281934 -5.934039 9.263068 -7.210786 0.601990 0.000000 0.000000 -0.000000 4.577503 16.860462 1.350591 -11.747277 5.304185 -14.788430 -1.314000 2.046842 -2.338723 0.000000 0.000000 -0.000000 5.386543 3.373888 -4.875576 0.767856 -0.647543 1.157703 -12.441894 -6.428332 2.367622 0.000000 0.000000 -0.000000 18.040155 -9.019240 -5.454031 0.000000 0.000000 -0.000000
-40.613083 96.760033 332.780182 0.000000 0.000000 -0.000000 -10.576333 -14.172145 11.988898 0.744372 -0.538058 -17.037253 38.720969 -0.032273 -1.211488 0.000000 0.000000 -0.000000 1.126409 -0.126483 -32.690225 1.278933 -6.198854 31.951034 -32.310418 -7.641173 12.396780 0.000000 0.000000 -0.000000 3.701762 -3.803910 -4.593362 9.010012 -6.708989 0.568612 0.000000 0.000000 -0.000000 4.372345 16.431449 1.240825 -11.783543 5.069509 -14.983494 -3.728667 1.076467 -4.105891 0.000000 0.000000 -0.000000 5.460420 3.100862 -4.991431 1.534850 -0.140574 2.032637 -12.902574 -6.637304 2.292643 0.000000 0.000000 -0.000000 16.667462 -8.296968 -5.296487 0.000000 0.000000 -0.000000
-40.997246 96.339401 337.110413 0.000000 0.000000 -0.000000 -10.633540 -14.822868 13.495780 1.405092 0.538092 -15.420179 37.496271 2.504336 -1.487600 0.000000 0.000000 -0.000000 3.656454 1.342446 -31.992926 0.944827 -5.220184 15.377284 -73.379660 -2.381791 10.883032 0.000000 0.000000 -0.000000 2.890326 -2.956545 -4.255382 8.718533 -6.060198 1.636608 0.000000 0.000000 -0.000000 3.609187 15.740577 0.622351 -11.967083 4.687593 -14.393115 -5.980513 -0.397814 -3.867709 0.000000 0.000000 -0.000000 4.981838 1.811307 -4.715688 2.500852 0.099479 2.872378 -12.233738 -6.460360 2.555798 0.000000 0.000000 -0.000000 15.240313 -7.531373 -5.002947 0.000000 0.000000 -0.000000
-41.305450 95.699112 341.666992 0.000000 0.000000 -0.000000 -10.604526 -15.320764 14.837688 1.567548 1.147813 -13.576892 34.217141 3.950724 0.003108 0.000000 0.000000 -0.000000 6.211229 2.947591 -30.453910 0.867321 -3.496473 1.164198 -163.436657 1.477117 9.744408 0.000000 0.000000 -0.000000 2.423839 -2.464452 -3.867944 7.111144 -4.950856 1.562845 0.000000 0.000000 -0.000000 3.166432 14.836557 0.375532 -12.989228 3.233474 -14.379246 -6.218802 -1.167213 -4.437996 0.000000 0.000000 -0.000000 3.943366 -0.029270 -3.973789 4.259196 1.117267 2.714241 -11.036484 -5.839643 3.513736 0.000000 0.000000 -0.000000 12.319686 -5.976969 -4.239472 0.000000 0.000000 -0.000000
